<?xml version="1.0" encoding="utf-8"?>
<!-- Generator: Adobe Illustrator 27.1.1, SVG Export Plug-In . SVG Version: 6.00 Build 0)  -->
<svg version="1.1" id="Layer_1" xmlns="http://www.w3.org/2000/svg" xmlns:xlink="http://www.w3.org/1999/xlink" x="0px" y="0px"
	 viewBox="0 0 700 700" style="enable-background:new 0 0 700 700;" xml:space="preserve">
<g>
	<path d="M192.5,271.2H96.2v157.5h96.2l175,140V131.2L192.5,271.2z"/>
	<path d="M420.9,429.6l-19.2-28.9c16.6-11.4,27.1-30.6,27.1-50.8s-10.5-39.4-27.1-50.8l19.2-28.9c27.1,17.5,42.9,48.1,42.9,79.6
		S448,412.1,420.9,429.6z"/>
	<path d="M455.9,495.2l-19.2-28.9c39.4-26.2,62.1-70,62.1-116.4s-23.6-90.1-62.1-116.4l19.2-28.9c49,32.4,77.9,86.6,77.9,145.2
		S504.9,462.9,455.9,495.2L455.9,495.2z"/>
	<path d="M490.9,560.9L471.6,532c60.4-41.1,97.1-108.5,97.1-182S532,209.1,471.6,168l19.2-28.9c70.9,47.2,112.9,126,112.9,210.9
		S561.8,513.6,490.9,560.9L490.9,560.9z"/>
</g>
</svg>
